<svg width="1482" height="344" viewBox="0 0 1482 344" fill="none" xmlns="http://www.w3.org/2000/svg">
<g clip-path="url(#clip0)">
<rect x="-256.936" y="-3.51765" width="1738.94" height="409.23" fill="#0078D4"/>
<mask id="mask0" mask-type="alpha" maskUnits="userSpaceOnUse" x="-207" y="-4" width="1689" height="410">
<rect x="-206.515" y="-3.51765" width="1688.52" height="409.23" fill="white"/>
</mask>
<g mask="url(#mask0)">
<mask id="mask1" mask-type="alpha" maskUnits="userSpaceOnUse" x="1018" y="-4" width="464" height="353">
<path d="M1394.26 -3.5174H1482V348.257C1482 348.257 1035.78 348.257 1018.76 348.257C1119.73 287.724 1394.26 -3.5174 1394.26 -3.5174Z" fill="white"/>
</mask>
<g mask="url(#mask1)">
<path opacity="0.1" fill-rule="evenodd" clip-rule="evenodd" d="M1453.46 324.638H1487.84V290.342H1453.46V324.638ZM1416.79 359.603V290.342H1451.17V325.308L1416.79 359.603ZM1487.84 361.22H1418.41L1452.79 326.925H1487.84V361.22ZM1414.5 361.22H1345.07L1371.14 335.217H1390.14V316.256L1414.5 291.959V361.22ZM1371.81 332.931H1387.85V316.926H1371.81V332.931ZM1343.45 290.342H1412.88L1388.52 314.64H1369.52V333.6L1343.45 359.603V290.342ZM1306.78 361.22H1341.16V290.342H1306.78V361.22ZM1304.49 334.268C1301.23 328.07 1294.79 323.785 1287.3 323.785H1270.11V290.342H1304.49V334.268ZM1304.49 361.22H1288.45V342.929H1270.11V326.071H1287.3C1296.78 326.071 1304.49 333.766 1304.49 343.219V361.22ZM1270.11 361.22H1286.16V345.216H1270.11V361.22ZM1267.82 323.785H1242.5C1241.92 318.656 1237.59 314.64 1232.3 314.64C1226.71 314.64 1222.17 319.103 1222.01 324.638H1196.78V290.342H1267.82V323.785ZM1224.28 324.928C1224.28 320.516 1227.88 316.926 1232.3 316.926C1236.72 316.926 1240.32 320.516 1240.32 324.928C1240.32 329.341 1236.72 332.931 1232.3 332.931C1227.88 332.931 1224.28 329.341 1224.28 324.928ZM1267.82 342.929V361.22H1196.78V326.925H1222.19C1223.12 331.645 1227.3 335.217 1232.3 335.217C1237.59 335.217 1241.92 331.201 1242.5 326.071H1267.82V342.929ZM1194.48 324.638H1161.73L1194.48 291.959V324.638ZM1194.48 361.22H1161.73L1194.48 328.541V361.22ZM1125.91 326.925H1192.86L1159.39 360.32L1125.91 326.925ZM1123.44 361.22V327.689L1157.05 361.22H1123.44ZM1121.15 322.168L1089.24 290.342H1121.15V322.168ZM1077.6 361.22H1121.14V326.924H1077.6V361.22ZM1075.31 324.638V361.22H1050.1V290.342H1086L1120.38 324.638H1075.31ZM1047.81 361.22H976.76V326.925H1012.28C1028.62 326.925 1042.53 316.513 1047.81 302.007V361.22ZM940.266 324.638H974.468V290.342H940.266V324.638ZM974.468 361.22H903.654C904.267 342.211 919.918 326.925 939.12 326.925H974.468V361.22ZM903.421 326.924V290.342H937.973V324.696C921.957 325.179 908.439 335.621 903.421 350.032V326.924ZM866.752 324.638H901.129V290.342H866.752V324.638ZM901.129 361.22H831.703L866.081 326.925H901.129V361.22ZM830.082 290.342H864.461V325.308L830.082 359.603V290.342ZM827.791 361.22H758.365L784.43 335.217H803.436V316.256L827.791 291.959V361.22ZM785.101 332.931H801.144V316.926H785.101V332.931ZM756.745 290.342H826.17L801.816 314.64H782.809V333.6L756.745 359.603V290.342ZM720.076 361.22H754.453V290.342H720.076V361.22ZM717.783 334.268C714.525 328.07 708.086 323.785 700.595 323.785H683.406V290.342H717.783V334.268ZM717.783 361.22H701.74V342.929H683.406V326.071H700.595C710.071 326.071 717.783 333.766 717.783 343.219V361.22ZM683.406 361.22H699.449V345.216H683.406V361.22ZM681.114 323.785H655.787C655.208 318.656 650.884 314.64 645.591 314.64C640.004 314.64 635.466 319.103 635.307 324.638H610.068V290.342H681.114V323.785ZM637.569 324.928C637.569 320.516 641.168 316.926 645.591 316.926C650.014 316.926 653.612 320.516 653.612 324.928C653.612 329.341 650.014 332.931 645.591 332.931C641.168 332.931 637.569 329.341 637.569 324.928ZM681.114 342.929V361.22H610.068V326.925H635.479C636.416 331.645 640.591 335.217 645.591 335.217C650.884 335.217 655.208 331.201 655.787 326.071H681.114V342.929ZM607.776 324.638H575.019L607.776 291.959V324.638ZM607.776 361.22H575.019L607.776 328.541V361.22ZM539.204 326.925H606.155L572.679 360.32L539.204 326.925ZM536.729 361.22V327.689L570.341 361.22H536.729ZM534.437 322.168L502.535 290.342H534.437V322.168ZM490.893 361.22H534.437V326.924H490.893V361.22ZM488.601 324.638V361.22H463.39V290.342H499.294L533.672 324.638H488.601ZM461.098 361.22H390.052V326.925H425.575C441.913 326.925 455.825 316.513 461.098 302.007V361.22ZM353.558 324.638H387.761V290.342H353.558V324.638ZM387.761 361.22H316.946C317.559 342.211 333.21 326.925 352.412 326.925H387.761V361.22ZM316.713 290.342H351.265V324.696C335.249 325.179 321.732 335.621 316.713 350.032V290.342ZM316.713 244.614L324.685 252.568L325.496 253.376L351.426 279.245L352.237 280.053L360.209 288.007H316.713V244.614ZM316.713 217.128H351.265V226.051L326.306 250.951L316.713 241.381V217.128ZM316.713 145.178L351.265 179.649V197.466V198.609V214.842H316.713V145.178ZM371.718 123.387H387.761V89.0906H371.718V123.387ZM371.718 141.677H387.761V125.672H371.718V141.677ZM335.048 123.386H369.426V89.0901H335.048V123.386ZM370.271 178.033H352.886L318.737 143.964H369.426H387.761V160.585L370.271 178.033ZM371.892 196.993V179.649L387.761 163.818V212.824L371.892 196.993ZM353.557 196.323H369.6V180.319H353.557V196.323ZM370.271 198.61L386.543 214.842H353.557V198.61H370.271ZM378.642 251.424L353.557 226.399V217.128H387.761V251.424H378.642ZM352.237 276.82L327.927 252.568L352.237 228.315L376.547 252.568L352.237 276.82ZM378.642 253.711H387.761V288.007H363.45L353.857 278.437L378.642 253.711ZM316.713 70.7993H387.761V86.8039H371.718H370.572H332.756V125.672H369.426V141.678H316.713V70.7993ZM316.713 15.9261H333.427L386.14 68.513H316.713V15.9261ZM316.713 13.6398H332.756V-2.36539H316.713V13.6398ZM316.713 -75.5299H351.091H351.265V-59.4095C341.064 -58.8042 332.931 -50.4174 332.931 -40.091C332.931 -35.1899 334.82 -30.7575 337.83 -27.3345L316.713 -6.26797V-75.5299ZM316.713 -148.695H351.091V-114.399V-113.256V-77.8163H316.713V-148.695ZM353.615 -150.981C354.213 -169.549 369.171 -184.522 387.761 -185.209V-150.981H353.615ZM353.382 -114.399H387.76V-148.695H353.382V-114.399ZM353.382 -77.8164H387.76V-112.113H353.382V-77.8164ZM335.223 -40.0912C335.223 -49.5441 342.935 -57.2386 352.412 -57.2386C361.887 -57.2386 369.6 -49.5441 369.6 -40.0912C369.6 -30.6371 361.887 -22.9432 352.412 -22.9432C342.935 -22.9432 335.223 -30.6371 335.223 -40.0912ZM387.761 -2.36539V66.8965L335.048 14.309V-2.36539H387.761ZM335.048 -4.65152H318.334L339.435 -25.7022C342.888 -22.5986 347.41 -20.6561 352.412 -20.6561C363.155 -20.6561 371.892 -29.3734 371.892 -40.091C371.892 -50.4174 363.759 -58.8042 353.557 -59.4095V-75.5299H387.761V-4.65152H335.048ZM316.713 -221.859H387.761V-187.496C367.908 -186.808 351.924 -170.808 351.323 -150.981H316.713V-221.859ZM316.713 -295.024H351.265V-260.67C335.249 -260.188 321.732 -249.745 316.713 -235.334V-295.024ZM387.761 -258.442V-224.146H316.946C317.559 -243.156 333.21 -258.442 352.412 -258.442H387.761ZM353.557 -260.728H387.76V-295.024H353.557V-260.728ZM390.052 253.711H406.095H407.241H426.721V234.276V233.133V217.128H434.857C441.26 227.909 450.293 236.92 461.098 243.308V288.007H390.052V253.711ZM390.052 218.343L406.095 234.348V251.424H390.052V218.343ZM408.387 251.424H424.429V235.42H408.387V251.424ZM408.118 233.133L392.075 217.128H424.429V233.133H408.118ZM390.052 143.964H433.462C427.706 154.505 424.429 166.578 424.429 179.403C424.429 192.229 427.706 204.301 433.462 214.842H390.052V143.964ZM390.052 123.386V89.0908H415.553C416.133 94.2192 420.457 98.2365 425.75 98.2365C431.435 98.2365 436.063 93.6183 436.063 87.9474C436.063 82.6671 432.037 78.353 426.895 77.7746V70.7993H461.098V115.498C450.293 121.886 441.26 130.898 434.857 141.678H390.052V123.386ZM425.75 79.9449C430.172 79.9449 433.771 83.5355 433.771 87.9471C433.771 92.3594 430.172 95.95 425.75 95.95C421.327 95.95 417.728 92.3594 417.728 87.9471C417.728 83.5355 421.327 79.9449 425.75 79.9449ZM390.052 70.7993H424.604V77.7746C419.843 78.3104 416.09 82.0552 415.553 86.8039H390.052V70.7993ZM390.052 23.9281C390.052 14.4746 397.764 6.78012 407.241 6.78012C416.717 6.78012 424.429 14.4746 424.429 23.9281V42.219C424.429 52.9366 433.167 61.6533 443.91 61.6533C450.599 61.6533 457.596 58.1163 461.098 49.0918V68.5127H390.052V23.9281ZM390.052 -2.36539H461.098V31.9306V35.1952C461.098 50.1057 454.514 59.3672 443.91 59.3672C434.434 59.3672 426.721 51.6727 426.721 42.2192V23.9283C426.721 13.2107 417.984 4.49405 407.241 4.49405C399.75 4.49405 393.31 8.77832 390.052 14.9771V-2.36539ZM390.052 -75.5299H461.098V-40.564L425.1 -4.65152H390.052V-75.5299ZM390.052 -114.399V-148.695H424.429V-112.782L459.478 -77.8163H390.052V-114.399ZM390.052 -185.228C408.803 -184.719 423.944 -169.665 424.545 -150.981H390.052V-185.228ZM390.052 -221.859H393.664C411.77 -204.588 435.654 -195.001 461.098 -194.717V-150.981H426.838C426.233 -170.925 410.067 -187.003 390.052 -187.514V-221.859ZM390.052 -258.441H425.575C441.913 -258.441 455.825 -268.853 461.098 -283.36V-224.145H390.052V-258.441ZM390.052 -295.024H461.04C460.427 -276.014 444.776 -260.729 425.575 -260.729H390.052V-295.024ZM461.098 -197.004C437.104 -197.276 414.577 -206.078 397.14 -221.859H461.098V-197.004ZM461.098 -79.4327L426.721 -113.729V-148.695H461.098V-79.4327ZM461.098 -4.65167H428.342L461.098 -37.3313V-4.65167ZM461.098 217.128V240.636C451.526 234.732 443.454 226.678 437.536 217.128H461.098ZM437.536 141.677C443.454 132.128 451.526 124.074 461.098 118.17V141.677H437.536ZM461.098 143.964V214.842H436.141C430.175 204.366 426.721 192.288 426.721 179.403C426.721 166.518 430.175 154.441 436.141 143.964H461.098ZM461.04 290.342C460.427 309.352 444.776 324.638 425.575 324.638H390.052V290.342H461.04ZM463.39 244.7C473.957 250.442 486.058 253.711 498.914 253.711H534.437V288.007H500.194L499.724 287.538L499.254 288.007H463.39V244.7ZM463.39 217.128H534.437V251.424H498.914C485.998 251.424 473.892 247.979 463.39 242.026V217.128ZM463.39 143.964H497.768V169.231C492.627 169.808 488.601 174.122 488.601 179.403C488.601 185.074 493.229 189.692 498.914 189.692C504.207 189.692 508.531 185.675 509.11 180.547H534.437V214.842H463.39V143.964ZM463.39 116.779C473.766 110.896 485.718 107.484 498.462 107.404L500.06 108.999V107.382H534.437V141.678H463.39V116.779ZM463.39 72.4154L496.282 105.229C484.415 105.644 473.225 108.761 463.39 114.107V72.4154ZM463.39 34.2169H480.579C484.903 34.2169 488.816 35.8735 491.839 38.5151L463.39 66.8965V34.2169ZM463.39 -2.36539H497.826C498.115 7.16922 501.953 15.8121 508.086 22.307L493.459 36.8988C490.02 33.8439 485.537 31.9306 480.579 31.9306H463.39V-2.36539ZM463.39 -39.6174L499.388 -75.5299H534.437V-41.1759C514.505 -40.5756 498.428 -24.5369 497.826 -4.65152H463.39V-39.6174ZM463.39 -75.5299H496.148L463.39 -42.8509V-75.5299ZM463.39 -77.8163H497.768V-148.695H463.39V-77.8163ZM463.39 -194.663H470.357C470.841 -184.372 479.312 -176.131 489.747 -176.131C494.704 -176.131 499.187 -178.045 502.627 -181.099L508.086 -175.654C501.953 -169.158 498.115 -160.515 497.826 -150.981H463.39V-194.663ZM463.39 -221.859H488.601V-214.884C478.869 -214.308 471.105 -206.627 470.407 -196.95H463.39V-221.859ZM463.39 -295.024H499.294L533.672 -260.729H488.601V-224.146H463.39V-295.024ZM534.437 -295.024V-263.198L502.535 -295.024H534.437ZM536.729 253.769C555.4 254.368 570.448 269.381 571.048 288.007H536.729V253.769ZM536.729 217.128H607.776V288.007H573.34C572.738 268.121 556.662 252.083 536.729 251.482V217.128ZM536.729 180.547H589.557C590.139 190.337 597.961 198.141 607.776 198.721V214.842H536.729V180.547ZM536.729 143.964H607.776V160.085C597.961 160.665 590.139 168.469 589.557 178.26H536.729V143.964ZM536.729 106.712L572.727 70.7993H607.776V86.9203C597.574 87.525 589.441 95.9119 589.441 106.239C589.441 116.565 597.574 124.952 607.776 125.557V141.678H536.729V106.712ZM536.729 70.7993H569.486L536.729 103.479V70.7993ZM536.729 34.1589C546.286 33.8706 554.95 30.0417 561.46 23.924L606.155 68.5128H572.351L572.064 68.227L571.778 68.5128H536.729V34.1589ZM536.729 -2.36539H571.048C570.448 16.2607 555.4 31.2736 536.729 31.8727V-2.36539ZM536.729 -4.65186H571.106V-38.9479H536.729V-4.65186ZM536.729 -41.2338H571.106V-75.5299H536.729V-41.2338ZM536.729 -148.695H571.106V-123.428C565.965 -122.85 561.939 -118.536 561.939 -113.256C561.939 -107.975 565.965 -103.661 571.106 -103.083V-77.8163H536.729V-148.695ZM536.729 -185.219C555.4 -184.621 570.448 -169.607 571.048 -150.981H536.729V-185.219ZM536.729 -221.859H572.633L607.776 -186.8V-150.981H573.34C572.738 -170.866 556.662 -186.905 536.729 -187.505V-221.859ZM536.729 -257.678L570.341 -224.146H536.729V-257.678ZM536.729 -295.024H606.155L571.778 -260.729H536.912L536.729 -260.911V-295.024ZM607.776 -260.728H575.019L607.776 -293.407V-260.728ZM607.776 -221.859V-190.033L575.874 -221.859H607.776ZM572.679 -225.046L539.204 -258.442H606.155L572.679 -225.046ZM607.776 -256.825V-224.145H575.019L607.776 -256.825ZM573.34 -2.36539H607.776V34.2169V66.8965L563.08 22.307C569.212 15.8121 573.052 7.16922 573.34 -2.36539ZM580.273 -113.256C580.273 -108.844 576.675 -105.253 572.252 -105.253C567.829 -105.253 564.231 -108.844 564.231 -113.256C564.231 -117.667 567.829 -121.258 572.252 -121.258C576.675 -121.258 580.273 -117.667 580.273 -113.256ZM578.653 -121.258C577.174 -122.439 575.377 -123.205 573.398 -123.428V-148.695H606.155L578.653 -121.258ZM573.398 -77.8165V-103.083C578.539 -103.661 582.565 -107.975 582.565 -113.256C582.565 -115.681 581.686 -117.88 580.273 -119.642L607.776 -147.078V-77.8165H573.398ZM573.398 -4.65186H607.776V-38.9479H573.398V-4.65186ZM573.398 -41.2338H607.776V-75.5299H573.398V-41.2338ZM607.776 123.27C598.841 122.67 591.733 115.301 591.733 106.239C591.733 97.1752 598.841 89.8074 607.776 89.2064V123.27ZM607.776 196.435C598.841 195.834 591.733 188.466 591.733 179.403C591.733 170.34 598.841 162.972 607.776 162.371V196.435ZM536.729 290.342H606.155L571.778 324.638H536.912L536.729 324.455V290.342ZM500.06 -77.8163H534.437V-148.695H500.06V-77.8163ZM534.437 -185.219V-150.981H500.118C500.718 -169.607 515.767 -184.621 534.437 -185.219ZM490.892 -224.146H534.437V-258.442H490.892V-224.146ZM489.747 -178.418C480.271 -178.418 472.558 -186.112 472.558 -195.566C472.558 -205.019 480.271 -212.714 489.747 -212.714C499.223 -212.714 506.935 -205.019 506.935 -195.566C506.935 -186.112 499.223 -178.418 489.747 -178.418ZM509.227 -195.566C509.227 -205.893 501.094 -214.279 490.892 -214.884V-221.859H534.437V-187.505C524.881 -187.217 516.216 -183.387 509.706 -177.27L504.247 -182.716C507.309 -186.147 509.227 -190.62 509.227 -195.566ZM500.06 105.095H534.437V70.7993H500.06V105.095ZM500.118 -4.6517C500.718 -23.2778 515.767 -38.2913 534.437 -38.8898V-4.6517H500.118ZM534.437 -2.36539V31.8727C515.767 31.2736 500.718 16.2607 500.118 -2.36539H534.437ZM495.08 38.5151L509.706 23.924C516.216 30.0417 524.881 33.8706 534.437 34.1589V68.5128H500.06V51.3648C500.06 46.4193 498.141 41.9467 495.08 38.5151ZM497.768 70.7993V103.479L465.011 70.7993H497.768ZM465.011 68.513L493.459 40.1323C496.107 43.1487 497.768 47.0515 497.768 51.365V68.513H465.011ZM506.935 179.403C506.935 183.815 503.336 187.405 498.914 187.405C494.492 187.405 490.892 183.815 490.892 179.403C490.892 174.99 494.492 171.401 498.914 171.401C503.336 171.401 506.935 174.99 506.935 179.403ZM500.06 169.231V143.964H534.437V178.26H509.11C508.574 173.511 504.82 169.766 500.06 169.231ZM610.068 217.128H679.494L610.068 286.39V217.128ZM610.068 198.721C619.882 198.141 627.703 190.337 628.286 180.547H681.114V214.842H610.068V198.721ZM610.068 162.371C619.002 162.972 626.11 170.34 626.11 179.403C626.11 188.466 619.002 195.834 610.068 196.435V162.371ZM610.068 143.964H644.445V178.26H628.286C627.703 168.469 619.882 160.665 610.068 160.085V143.964ZM610.068 141.678H644.445V70.7993H610.068V141.678ZM610.068 34.2169H644.445V51.3649V52.5077V68.5129H610.068V34.2169ZM610.068 31.9312H644.445V-2.36539H610.068V31.9312ZM610.068 -4.65186H644.445V-38.9479H610.068V-4.65186ZM610.068 -75.5299H679.494L645.116 -41.2344H610.068V-75.5299ZM628.403 -96.1072H644.445V-112.113H628.403V-96.1072ZM610.068 -148.695H645.116L662.305 -131.547L645.116 -114.399H626.11V-93.8208H646.737V-112.782L663.926 -129.93L681.114 -112.782V-77.8163H610.068V-148.695ZM610.068 -150.981H644.445V-221.859H610.068V-150.981ZM610.068 -258.442H635.479C636.416 -253.722 640.591 -250.149 645.591 -250.149C650.884 -250.149 655.208 -254.165 655.787 -259.294H681.114V-242.436V-224.146H610.068V-258.442ZM653.612 -260.438C653.612 -256.025 650.014 -252.435 645.591 -252.435C641.168 -252.435 637.569 -256.025 637.569 -260.438C637.569 -264.85 641.168 -268.44 645.591 -268.44C650.014 -268.44 653.612 -264.85 653.612 -260.438ZM610.068 -295.024H681.114V-261.581H655.787C655.208 -266.71 650.884 -270.726 645.591 -270.726C640.004 -270.726 635.466 -266.263 635.307 -260.729H610.068V-295.024ZM681.114 -148.695V-116.015L648.358 -148.695H681.114ZM646.737 -179.364H681.114V-221.859H646.737V-179.364ZM646.737 -150.981H681.114V-177.078H646.737V-150.981ZM646.737 178.26H681.114V143.964H646.737V178.26ZM646.737 141.678H681.114V107.382H646.737V141.678ZM646.737 105.095H681.114V70.7993H646.737V105.095ZM646.737 -4.65186V-39.6177L681.114 -73.9138V-4.65186H646.737ZM646.737 50.2214H662.78V34.2169H646.737V50.2214ZM665.071 52.5078V31.9306H646.737V-2.36539H681.114V68.5129H646.737V52.5078H665.071ZM611.688 288.007L681.114 218.745V288.007H611.688ZM683.406 217.128H717.841C718.443 237.014 734.52 253.052 754.453 253.653V269.716H710.769C710.189 264.586 705.866 260.57 700.572 260.57C694.887 260.57 690.259 265.188 690.259 270.859C690.259 273.288 691.143 275.494 692.562 277.256L683.406 286.39V217.128ZM683.406 180.547H699.565C699.831 185.034 701.609 189.091 704.429 192.253L683.406 213.226V180.547ZM683.406 143.964H717.783V160.085C707.969 160.665 700.147 168.469 699.565 178.26H683.406V143.964ZM683.406 107.439C702.076 108.038 717.125 123.051 717.725 141.677H683.406V107.439ZM683.406 70.7993H752.832L708.137 115.388C701.626 109.271 692.963 105.442 683.406 105.153V70.7993ZM683.406 12.1837L697.864 26.6078L710.828 39.5398L683.406 66.8965V12.1837ZM683.406 -2.36539H736.118V14.309L725.333 25.0694C721.765 21.903 717.264 20.1055 712.448 20.1055C707.631 20.1055 703.13 21.903 699.563 25.0694L683.406 8.9502V-2.36539ZM683.406 -46.1973C693.484 -34.7628 699.129 -20.1815 699.395 -4.65173H683.406V-46.1973ZM683.406 -75.5299H717.841C718.443 -55.6445 734.52 -39.6064 754.453 -39.0055V-22.943H736.118V-4.65152H701.687C701.407 -21.6277 694.961 -37.55 683.406 -49.6652V-75.5299ZM683.406 -112.113H742.761C728.564 -106.977 718.32 -93.6155 717.841 -77.8164H683.406V-112.113ZM683.406 -114.399H754.452V-148.695H683.406V-114.399ZM699.368 -178.222L710.711 -189.538L722.054 -178.222L710.711 -166.905L699.368 -178.222ZM683.406 -177.078H697.273L710.711 -163.672L725.294 -178.222L710.711 -192.77L697.273 -179.365H683.406V-221.859H701.74H717.884C718.914 -202.369 734.806 -186.779 754.453 -186.188V-150.981H683.406V-177.078ZM683.406 -224.145H699.448V-240.15H683.406V-224.145ZM683.406 -259.294H700.595C710.071 -259.294 717.783 -251.6 717.783 -242.146V-224.146H701.74V-242.436H683.406V-259.294ZM683.406 -295.024H717.783V-251.098C714.525 -257.296 708.086 -261.581 700.595 -261.581H683.406V-295.024ZM720.076 -224.146H754.453V-295.024H720.076V-224.146ZM754.453 -188.474C736.069 -189.064 721.201 -203.628 720.176 -221.859H754.453V-188.474ZM720.133 -77.8163C720.733 -96.443 735.782 -111.456 754.453 -112.054V-77.8163H720.133ZM754.453 -75.5299V-41.2917C735.782 -41.8903 720.733 -56.9038 720.133 -75.5299H754.453ZM754.453 217.128V251.366C735.782 250.768 720.733 235.754 720.133 217.128H754.453ZM720.076 198.721C730.276 198.117 738.41 189.73 738.41 179.403C738.41 169.076 730.276 160.689 720.076 160.085V143.964H754.453V214.842H720.076V198.721ZM707.67 192.253L731.81 168.17C734.457 171.186 736.118 175.089 736.118 179.403C736.118 188.857 728.405 196.551 718.929 196.551C714.605 196.551 710.693 194.895 707.67 192.253ZM717.783 198.721V214.842H685.026L706.049 193.87C709.218 196.682 713.285 198.456 717.783 198.721ZM709.757 117.005L754.453 72.4154V141.677H720.017C719.728 132.143 715.89 123.5 709.757 117.005ZM730.189 166.554L706.049 190.636C703.401 187.62 701.74 183.717 701.74 179.403C701.74 169.949 709.453 162.255 718.929 162.255C723.253 162.255 727.166 163.912 730.189 166.554ZM738.41 -4.65179H754.453V-20.6564H738.41V-4.65179ZM738.41 13.6398H754.453V-2.36539H738.41V13.6398ZM701.131 26.6344C704.265 23.8879 708.24 22.3915 712.448 22.3915C716.655 22.3915 720.63 23.8879 723.764 26.6344L712.448 37.9237L701.131 26.6344ZM727.031 26.6078L737.739 15.9261H754.453V68.513H685.026L712.448 41.1562L727.031 26.6078ZM692.551 270.859C692.551 266.446 696.15 262.857 700.572 262.857C704.995 262.857 708.594 266.446 708.594 270.859C708.594 275.271 704.995 278.861 700.572 278.861C696.15 278.861 692.551 275.271 692.551 270.859ZM700.572 281.147C705.866 281.147 710.189 277.131 710.769 272.002H754.453V288.007H685.026L694.185 278.87C695.946 280.273 698.148 281.147 700.572 281.147ZM756.745 272.002H773.933C784.284 272.002 792.691 263.888 793.297 253.711H827.791V288.007H756.745V272.002ZM756.745 253.711H791.006C790.403 262.624 783.018 269.716 773.933 269.716H756.745V253.711ZM756.745 251.424H791.122V217.128H756.745V251.424ZM756.745 180.43C766.945 179.825 775.079 171.439 775.079 161.112V143.964H827.791V178.318C807.858 178.919 791.782 194.957 791.18 214.842H756.745V180.43ZM756.745 143.964H772.788V161.112C772.788 170.175 765.679 177.543 756.745 178.143V143.964ZM756.745 70.7993H809.456V105.997C809.456 110.409 805.857 114 801.435 114C797.013 114 793.413 110.409 793.413 105.997C793.413 100.326 788.785 95.7083 783.1 95.7083C777.416 95.7083 772.788 100.326 772.788 105.997V141.678H756.745V70.7993ZM756.745 15.9261V-2.36539H772.788H773.459L809.456 33.5477V68.5129H756.745V15.9261ZM756.745 -22.943V-75.5299H791.122V-41.2344H772.788V-4.65152H756.745V-22.943ZM756.745 -112.228C766.945 -112.833 775.079 -121.22 775.079 -131.547V-148.695H809.456V-108.946C798.801 -102.52 791.578 -91.0232 791.18 -77.8163H756.745V-112.228ZM756.745 -148.695H772.788V-131.547C772.788 -122.483 765.679 -115.115 756.745 -114.515V-148.695ZM756.745 -150.981H772.788V-186.13H756.745V-150.981ZM791.122 -186.661V-185.518V-150.981H775.079V-186.661C775.079 -191.073 778.678 -194.663 783.1 -194.663C787.523 -194.663 791.122 -191.073 791.122 -186.661ZM756.745 -221.859H827.791V-187.563V-169.272H811.748V-187.805H793.351C792.778 -192.94 788.4 -196.95 783.1 -196.95C778.018 -196.95 773.805 -193.251 772.966 -188.416H756.745V-221.859ZM756.745 -295.024H826.17L801.816 -270.726H782.809V-251.766L756.745 -225.763V-295.024ZM785.101 -252.435H801.144V-268.44H785.101V-252.435ZM827.791 -224.146H758.365L784.43 -250.149H803.436V-269.11L827.791 -293.407V-224.146ZM811.748 68.5129H827.791V34.2169H811.748V68.5129ZM827.791 -75.5299V-4.65152H793.413V-40.091V-41.2344V-75.5299H827.791ZM811.748 -150.981H827.791V-166.986H811.748V-150.981ZM827.791 -148.695V-114.341C822.028 -114.166 816.589 -112.713 811.748 -110.235V-148.695H827.791ZM793.414 -150.981H809.456V-185.518H793.414V-150.981ZM827.791 -112.054V-77.8163H793.472C794.071 -96.443 809.12 -111.456 827.791 -112.054ZM775.079 -4.65186H791.122V-38.9479H775.079V-4.65186ZM793.413 -2.36539H827.791V31.9306H811.076L776.699 -2.36539H793.413ZM827.675 141.677H793.53C794.132 132.764 801.518 125.672 810.602 125.672C819.687 125.672 827.073 132.764 827.675 141.677ZM810.602 123.386C800.251 123.386 791.845 131.501 791.238 141.678H775.079V105.997C775.079 101.586 778.678 97.9952 783.1 97.9952C787.523 97.9952 791.122 101.586 791.122 105.997C791.122 111.669 795.75 116.286 801.435 116.286C807.12 116.286 811.748 111.669 811.748 105.997V70.7993H827.791V133.87C824.533 127.672 818.094 123.386 810.602 123.386ZM793.472 214.842C794.071 196.214 809.119 181.189 827.791 180.593V214.842H793.472ZM793.414 251.424H827.791V217.128H793.414V251.424ZM830.082 253.769C848.753 254.368 863.802 269.381 864.402 288.007H830.082V253.769ZM830.082 217.128H864.415C865.074 237.001 881.183 253.007 901.129 253.55V288.007H866.694C866.092 268.121 850.016 252.083 830.082 251.482V217.128ZM830.082 182.162L862.84 214.842H830.082V182.162ZM830.082 151.772C833.341 157.97 839.781 162.255 847.272 162.255C857.623 162.255 866.029 154.141 866.635 143.964H901.129V178.206C881.645 178.738 865.826 194.019 864.487 213.253L830.082 178.93V151.772ZM864.344 143.964C863.742 152.877 856.356 159.969 847.272 159.969C838.187 159.969 830.801 152.877 830.199 143.964H864.344ZM865.606 114.24C861.184 114.24 857.585 110.65 857.585 106.239C857.585 101.826 861.184 98.2364 865.606 98.2364C870.028 98.2364 873.628 101.826 873.628 106.239C873.628 110.65 870.028 114.24 865.606 114.24ZM830.082 70.7993H901.129V141.678H866.752V116.411C871.893 115.833 875.919 111.52 875.919 106.239C875.919 100.567 871.291 95.9503 865.606 95.9503C859.922 95.9503 855.293 100.567 855.293 106.239C855.293 111.52 859.319 115.833 864.461 116.411V141.678H830.082V70.7993ZM830.082 34.3332C839.018 34.9336 846.126 42.3019 846.126 51.3648C846.126 60.4276 839.018 67.796 830.082 68.397V34.3332ZM830.082 -2.36539H846.797L882.795 33.5477V52.5078H901.129V68.5129H837.91C844.122 65.2618 848.418 58.8382 848.418 51.3649C848.418 41.0386 840.284 32.6517 830.082 32.0464V-2.36539ZM882.795 -2.36539V30.3142L850.038 -2.36539H882.795ZM830.082 -75.5299H846.126V-58.3819C846.126 -47.6642 854.863 -38.9476 865.606 -38.9476C875.965 -38.9476 884.46 -47.0529 885.055 -57.2384H901.129V-4.65152H885.087H844.506H830.082V-75.5299ZM830.082 -111.996C839.018 -111.396 846.126 -104.027 846.126 -94.9643V-77.8163H830.082V-111.996ZM882.795 -75.5299V-59.5247V-58.3819C882.795 -48.9283 875.082 -41.2344 865.607 -41.2344C856.13 -41.2344 848.418 -48.9283 848.418 -58.3819V-75.5299H882.795ZM830.082 -148.695H866.752H901.129V-77.8163H848.418V-94.9643C848.418 -105.291 840.284 -113.678 830.082 -114.282V-148.695ZM830.082 -169.272V-185.277H864.461V-150.981H830.082V-169.272ZM830.082 -221.859H901.129V-150.981H866.752V-187.563H830.082V-221.859ZM830.082 -295.024H864.461V-260.058L830.082 -225.763V-295.024ZM866.081 -258.442H901.129V-224.146H831.703L866.081 -258.442ZM866.752 -260.728H901.129V-295.024H866.752V-260.728ZM885.087 -59.5247H901.129V-75.5299H885.087V-59.5247ZM885.087 31.9306V-2.36539H901.129V15.9261V31.9306H885.087ZM901.129 34.2169V50.2214H885.087V35.8339V34.2169H901.129ZM866.698 214.842C867.245 196.129 882.372 181.037 901.129 180.492V214.842H866.698ZM901.129 217.128V251.263C882.445 250.721 867.363 235.741 866.707 217.128H901.129ZM903.421 244.614L911.393 252.568L912.204 253.376L938.134 279.245L938.944 280.053L946.917 288.007H903.421V244.614ZM903.421 217.128H937.973V226.051L913.014 250.951L903.421 241.381V217.128ZM903.421 145.178L937.973 179.649V197.466V198.609V214.842H903.421V145.178ZM903.421 70.7993H974.468V86.8039H958.425H957.28H919.464V125.672H956.134V141.678H903.421V70.7993ZM903.421 52.5078V31.9307V15.9261H920.135L972.848 68.513H903.421V52.5078ZM903.421 13.6398H919.464V-2.36539H903.421V13.6398ZM903.421 -75.5299H937.799H937.973V-59.4095C927.772 -58.8042 919.638 -50.4174 919.638 -40.091C919.638 -35.1899 921.527 -30.7575 924.538 -27.3345L903.421 -6.26797V-75.5299ZM903.421 -148.695H937.799V-114.399V-113.256V-77.8163H903.421V-148.695ZM903.421 -221.859H974.468V-187.496C954.616 -186.808 938.631 -170.808 938.031 -150.981H903.421V-221.859ZM903.421 -258.442V-295.024H937.973V-260.67C921.957 -260.188 908.439 -249.745 903.421 -235.334V-258.442ZM974.468 -258.442V-224.146H903.654C904.267 -243.156 919.918 -258.442 939.12 -258.442H974.468ZM940.265 -260.728H974.468V-295.024H940.265V-260.728ZM921.756 -2.36539H974.468V66.8965L921.756 14.309V-2.36539ZM921.93 -40.0912C921.93 -49.5441 929.643 -57.2386 939.12 -57.2386C948.595 -57.2386 956.308 -49.5441 956.308 -40.0912C956.308 -30.6371 948.595 -22.9432 939.12 -22.9432C929.643 -22.9432 921.93 -30.6371 921.93 -40.0912ZM939.12 -20.6561C949.862 -20.6561 958.6 -29.3734 958.6 -40.091C958.6 -50.4174 950.466 -58.8042 940.265 -59.4095V-75.5299H974.468V-4.65152H921.756H905.042L926.143 -25.7022C929.596 -22.5986 934.117 -20.6561 939.12 -20.6561ZM940.091 -77.8164H974.468V-112.113H940.091V-77.8164ZM940.323 -150.981C940.921 -169.549 955.878 -184.522 974.468 -185.209V-150.981H940.323ZM940.091 -114.399H974.468V-148.695H940.091V-114.399ZM965.349 253.711H974.468V288.007H950.158L940.565 278.437L965.349 253.711ZM963.255 252.568L938.944 276.82L914.634 252.568L938.944 228.315L963.255 252.568ZM958.6 196.993V179.649L974.468 163.818V212.824L958.6 196.993ZM974.468 217.128V251.424H965.349L940.265 226.399V217.128H974.468ZM940.265 196.323H956.308V180.319H940.265V196.323ZM956.98 198.61L973.251 214.842H940.265V198.61H956.98ZM958.425 123.387H974.468V89.0906H958.425V123.387ZM958.425 141.677H974.468V125.672H958.425V141.677ZM921.756 123.386H956.134V89.0901H921.756V123.386ZM974.468 143.964V160.585L956.98 178.033H939.594L905.445 143.964H956.134H974.468ZM976.76 253.711H992.802H993.948H1013.43V234.276V233.133V217.128H1021.56C1027.97 227.909 1037 236.92 1047.81 243.308V288.007H976.76V253.711ZM976.76 218.343L992.802 234.348V251.424H976.76V218.343ZM995.095 251.424H1011.14V235.42H995.095V251.424ZM994.826 233.133L978.783 217.128H1011.14V233.133H994.826ZM976.76 143.964H1020.17C1014.41 154.505 1011.14 166.578 1011.14 179.403C1011.14 192.229 1014.41 204.301 1020.17 214.842H976.76V143.964ZM976.76 123.386V89.0908H1002.26C1002.84 94.2192 1007.16 98.2365 1012.46 98.2365C1018.14 98.2365 1022.77 93.6183 1022.77 87.9474C1022.77 82.6671 1018.74 78.353 1013.6 77.7746V70.7993H1047.81V115.498C1037 121.886 1027.97 130.898 1021.56 141.678H976.76V123.386ZM1012.46 79.9449C1016.88 79.9449 1020.48 83.5355 1020.48 87.9471C1020.48 92.3594 1016.88 95.95 1012.46 95.95C1008.04 95.95 1004.44 92.3594 1004.44 87.9471C1004.44 83.5355 1008.04 79.9449 1012.46 79.9449ZM976.76 70.7993H1011.31V77.7746C1006.55 78.3104 1002.8 82.0552 1002.26 86.8039H976.76V70.7993ZM976.76 23.9281C976.76 14.4746 984.472 6.78012 993.948 6.78012C1003.42 6.78012 1011.14 14.4746 1011.14 23.9281V42.219C1011.14 52.9366 1019.87 61.6533 1030.62 61.6533C1037.31 61.6533 1044.3 58.1163 1047.81 49.0918V68.5127H976.76V23.9281ZM976.76 -2.36539H1047.81V31.9306V35.1952C1047.81 50.1057 1041.22 59.3672 1030.62 59.3672C1021.14 59.3672 1013.43 51.6727 1013.43 42.2192V23.9283C1013.43 13.2107 1004.69 4.49405 993.948 4.49405C986.457 4.49405 980.019 8.77832 976.76 14.9771V-2.36539ZM976.76 -75.5299H1047.81V-40.564L1011.81 -4.65152H976.76V-75.5299ZM976.76 -114.399V-148.695H1011.14V-112.782L1046.19 -77.8163H976.76V-114.399ZM976.76 -185.228C995.511 -184.719 1010.65 -169.665 1011.25 -150.981H976.76V-185.228ZM976.76 -221.859H980.372C998.478 -204.588 1022.36 -195.001 1047.81 -194.717V-150.981H1013.55C1012.94 -170.925 996.775 -187.003 976.76 -187.514V-221.859ZM976.76 -258.441H1012.28C1028.62 -258.441 1042.53 -268.853 1047.81 -283.36V-224.145H976.76V-258.441ZM976.76 -295.024H1047.75C1047.14 -276.014 1031.48 -260.729 1012.28 -260.729H976.76V-295.024ZM1047.81 -197.004C1023.81 -197.276 1001.29 -206.078 983.848 -221.859H1047.81V-197.004ZM1047.81 -79.4327L1013.43 -113.729V-148.695H1047.81V-79.4327ZM1047.81 -4.65167H1015.05L1047.81 -37.3313V-4.65167ZM1047.81 217.128V240.636C1038.23 234.732 1030.16 226.678 1024.24 217.128H1047.81ZM1024.24 141.677C1030.16 132.128 1038.23 124.074 1047.81 118.17V141.677H1024.24ZM1047.81 143.964V214.842H1022.85C1016.88 204.366 1013.43 192.288 1013.43 179.403C1013.43 166.518 1016.88 154.441 1022.85 143.964H1047.81ZM1047.75 290.342C1047.14 309.352 1031.48 324.638 1012.28 324.638H976.76V290.342H1047.75ZM1050.1 244.7C1060.66 250.442 1072.77 253.711 1085.62 253.711H1121.15V288.007H1086.9L1086.43 287.538L1085.96 288.007H1050.1V244.7ZM1050.1 217.128H1121.15V251.424H1085.62C1072.71 251.424 1060.6 247.979 1050.1 242.026V217.128ZM1050.1 143.964H1084.48V169.231C1079.33 169.808 1075.31 174.122 1075.31 179.403C1075.31 185.074 1079.94 189.692 1085.62 189.692C1090.92 189.692 1095.24 185.675 1095.82 180.547H1121.15V214.842H1050.1V143.964ZM1050.1 116.779C1060.47 110.896 1072.43 107.484 1085.17 107.404L1086.77 108.999V107.382H1121.15V141.678H1050.1V116.779ZM1050.1 72.4154L1082.99 105.229C1071.12 105.644 1059.93 108.761 1050.1 114.107V72.4154ZM1050.1 34.2169H1067.29C1071.61 34.2169 1075.52 35.8735 1078.55 38.5151L1050.1 66.8965V34.2169ZM1050.1 -2.36539H1084.53C1084.82 7.16922 1088.66 15.8121 1094.79 22.307L1080.17 36.8988C1076.73 33.8439 1072.24 31.9306 1067.29 31.9306H1050.1V-2.36539ZM1050.1 -39.6174L1086.1 -75.5299H1121.15V-41.1759C1101.21 -40.5756 1085.14 -24.5369 1084.53 -4.65152H1050.1V-39.6174ZM1050.1 -75.5299H1082.86L1050.1 -42.8509V-75.5299ZM1050.1 -77.8163H1084.48V-148.695H1050.1V-77.8163ZM1050.1 -194.663H1057.07C1057.55 -184.372 1066.02 -176.131 1076.45 -176.131C1081.41 -176.131 1085.89 -178.045 1089.33 -181.099L1094.79 -175.654C1088.66 -169.158 1084.82 -160.515 1084.53 -150.981H1050.1V-194.663ZM1050.1 -221.859H1075.31V-214.884C1065.58 -214.308 1057.81 -206.627 1057.11 -196.95H1050.1V-221.859ZM1050.1 -295.024H1086L1120.38 -260.729H1075.31V-224.146H1050.1V-295.024ZM1121.15 -295.024V-263.198L1089.24 -295.024H1121.15ZM1123.44 253.769C1142.11 254.368 1157.16 269.381 1157.76 288.007H1123.44V253.769ZM1123.44 217.128H1194.48V288.007H1160.05C1159.45 268.121 1143.37 252.083 1123.44 251.482V217.128ZM1123.44 180.547H1176.26C1176.85 190.337 1184.67 198.141 1194.48 198.721V214.842H1123.44V180.547ZM1123.44 143.964H1194.48V160.085C1184.67 160.665 1176.85 168.469 1176.26 178.26H1123.44V143.964ZM1123.44 106.712L1159.43 70.7993H1194.48V86.9203C1184.28 87.525 1176.15 95.9119 1176.15 106.239C1176.15 116.565 1184.28 124.952 1194.48 125.557V141.678H1123.44V106.712ZM1123.44 70.7993H1156.19L1123.44 103.479V70.7993ZM1123.44 34.1589C1132.99 33.8706 1141.66 30.0417 1148.17 23.924L1192.86 68.5128H1159.06L1158.77 68.227L1158.49 68.5128H1123.44V34.1589ZM1123.44 -2.36539H1157.76C1157.16 16.2607 1142.11 31.2736 1123.44 31.8727V-2.36539ZM1123.44 -4.65186H1157.81V-38.9479H1123.44V-4.65186ZM1123.44 -41.2338H1157.81V-75.5299H1123.44V-41.2338ZM1123.44 -148.695H1157.81V-123.428C1152.67 -122.85 1148.65 -118.536 1148.65 -113.256C1148.65 -107.975 1152.67 -103.661 1157.81 -103.083V-77.8163H1123.44V-148.695ZM1123.44 -185.219C1142.11 -184.621 1157.16 -169.607 1157.76 -150.981H1123.44V-185.219ZM1123.44 -221.859H1159.34L1194.48 -186.8V-150.981H1160.05C1159.45 -170.866 1143.37 -186.905 1123.44 -187.505V-221.859ZM1123.44 -257.678L1157.05 -224.146H1123.44V-257.678ZM1123.44 -295.024H1192.86L1158.49 -260.729H1123.62L1123.44 -260.911V-295.024ZM1194.48 -260.728H1161.73L1194.48 -293.407V-260.728ZM1194.48 -221.859V-190.033L1162.58 -221.859H1194.48ZM1159.39 -225.046L1125.91 -258.442H1192.86L1159.39 -225.046ZM1194.48 -256.825V-224.145H1161.73L1194.48 -256.825ZM1160.05 -2.36539H1194.48V34.2169V66.8965L1149.79 22.307C1155.92 15.8121 1159.76 7.16922 1160.05 -2.36539ZM1166.98 -113.256C1166.98 -108.844 1163.38 -105.253 1158.96 -105.253C1154.54 -105.253 1150.94 -108.844 1150.94 -113.256C1150.94 -117.667 1154.54 -121.258 1158.96 -121.258C1163.38 -121.258 1166.98 -117.667 1166.98 -113.256ZM1165.36 -121.258C1163.88 -122.439 1162.08 -123.205 1160.11 -123.428V-148.695H1192.86L1165.36 -121.258ZM1160.11 -77.8165V-103.083C1165.25 -103.661 1169.27 -107.975 1169.27 -113.256C1169.27 -115.681 1168.39 -117.88 1166.98 -119.642L1194.48 -147.078V-77.8165H1160.11ZM1160.11 -4.65186H1194.48V-38.9479H1160.11V-4.65186ZM1160.11 -41.2339H1194.48V-75.5299H1160.11V-41.2339ZM1194.48 123.27C1185.55 122.67 1178.44 115.301 1178.44 106.239C1178.44 97.1752 1185.55 89.8074 1194.48 89.2064V123.27ZM1194.48 196.435C1185.55 195.834 1178.44 188.466 1178.44 179.403C1178.44 170.34 1185.55 162.972 1194.48 162.371V196.435ZM1123.44 290.342H1192.86L1158.49 324.638H1123.62L1123.44 324.455V290.342ZM1086.77 -77.8163H1121.14V-148.695H1086.77V-77.8163ZM1121.15 -185.219V-150.981H1086.83C1087.43 -169.607 1102.47 -184.621 1121.15 -185.219ZM1077.6 -224.146H1121.14V-258.442H1077.6V-224.146ZM1076.45 -178.418C1066.98 -178.418 1059.27 -186.112 1059.27 -195.566C1059.27 -205.019 1066.98 -212.714 1076.45 -212.714C1085.93 -212.714 1093.64 -205.019 1093.64 -195.566C1093.64 -186.112 1085.93 -178.418 1076.45 -178.418ZM1095.93 -195.566C1095.93 -205.893 1087.8 -214.279 1077.6 -214.884V-221.859H1121.15V-187.505C1111.59 -187.217 1102.92 -183.387 1096.41 -177.27L1090.95 -182.716C1094.02 -186.147 1095.93 -190.62 1095.93 -195.566ZM1086.77 105.095H1121.14V70.7993H1086.77V105.095ZM1086.83 -4.6517C1087.43 -23.2778 1102.47 -38.2913 1121.15 -38.8898V-4.6517H1086.83ZM1121.15 -2.36539V31.8727C1102.47 31.2736 1087.43 16.2607 1086.83 -2.36539H1121.15ZM1081.79 38.5151L1096.41 23.924C1102.92 30.0417 1111.59 33.8706 1121.14 34.1589V68.5128H1086.77V51.3648C1086.77 46.4193 1084.85 41.9467 1081.79 38.5151ZM1084.48 70.7993V103.479L1051.72 70.7993H1084.48ZM1051.72 68.513L1080.17 40.1323C1082.82 43.1487 1084.48 47.0515 1084.48 51.365V68.513H1051.72ZM1093.64 179.403C1093.64 183.815 1090.04 187.405 1085.62 187.405C1081.2 187.405 1077.6 183.815 1077.6 179.403C1077.6 174.99 1081.2 171.401 1085.62 171.401C1090.04 171.401 1093.64 174.99 1093.64 179.403ZM1086.77 169.231V143.964H1121.14V178.26H1095.82C1095.28 173.511 1091.53 169.766 1086.77 169.231ZM1196.78 217.128H1266.2L1196.78 286.39V217.128ZM1196.78 198.721C1206.59 198.141 1214.41 190.337 1214.99 180.547H1267.82V214.842H1196.78V198.721ZM1196.78 162.371C1205.71 162.972 1212.82 170.34 1212.82 179.403C1212.82 188.466 1205.71 195.834 1196.78 196.435V162.371ZM1196.78 143.964H1231.15V178.26H1214.99C1214.41 168.469 1206.59 160.665 1196.78 160.085V143.964ZM1196.78 141.678H1231.15V70.7993H1196.78V141.678ZM1196.78 34.2169H1231.15V51.3649V52.5077V68.5129H1196.78V34.2169ZM1196.78 31.9312H1231.15V-2.36539H1196.78V31.9312ZM1196.78 -4.65186H1231.15V-38.9479H1196.78V-4.65186ZM1196.78 -75.5299H1266.2L1231.82 -41.2344H1196.78V-75.5299ZM1215.11 -96.1072H1231.15V-112.113H1215.11V-96.1072ZM1196.78 -148.695H1231.82L1249.01 -131.547L1231.82 -114.399H1212.82V-93.8208H1233.44V-112.782L1250.63 -129.93L1267.82 -112.782V-77.8163H1196.78V-148.695ZM1196.78 -150.981H1231.15V-221.859H1196.78V-150.981ZM1196.78 -258.442H1222.19C1223.12 -253.722 1227.3 -250.149 1232.3 -250.149C1237.59 -250.149 1241.92 -254.165 1242.5 -259.294H1267.82V-242.436V-224.146H1196.78V-258.442ZM1240.32 -260.438C1240.32 -256.025 1236.72 -252.435 1232.3 -252.435C1227.88 -252.435 1224.28 -256.025 1224.28 -260.438C1224.28 -264.85 1227.88 -268.44 1232.3 -268.44C1236.72 -268.44 1240.32 -264.85 1240.32 -260.438ZM1196.78 -295.024H1267.82V-261.581H1242.5C1241.92 -266.71 1237.59 -270.726 1232.3 -270.726C1226.71 -270.726 1222.17 -266.263 1222.01 -260.729H1196.78V-295.024ZM1267.82 -148.695V-116.015L1235.06 -148.695H1267.82ZM1233.44 -179.364H1267.82V-221.859H1233.44V-179.364ZM1233.44 -150.981H1267.82V-177.078H1233.44V-150.981ZM1233.44 178.26H1267.82V143.964H1233.44V178.26ZM1233.44 141.678H1267.82V107.382H1233.44V141.678ZM1233.44 105.095H1267.82V70.7993H1233.44V105.095ZM1233.44 -4.65186V-39.6177L1267.82 -73.9138V-4.65186H1233.44ZM1233.44 50.2214H1249.49V34.2169H1233.44V50.2214ZM1251.78 52.5078V31.9306H1233.44V-2.36539H1267.82V68.5129H1233.44V52.5078H1251.78ZM1198.4 288.007L1267.82 218.745V288.007H1198.4ZM1270.11 217.128H1304.55C1305.15 237.014 1321.23 253.052 1341.16 253.653V269.716H1297.48C1296.9 264.586 1292.57 260.57 1287.28 260.57C1281.59 260.57 1276.97 265.188 1276.97 270.859C1276.97 273.288 1277.85 275.494 1279.27 277.256L1270.11 286.39V217.128ZM1270.11 180.547H1286.27C1286.54 185.034 1288.32 189.091 1291.14 192.253L1270.11 213.226V180.547ZM1270.11 143.964H1304.49V160.085C1294.68 160.665 1286.85 168.469 1286.27 178.26H1270.11V143.964ZM1270.11 107.439C1288.78 108.038 1303.83 123.051 1304.43 141.677H1270.11V107.439ZM1270.11 70.7993H1339.54L1294.84 115.388C1288.33 109.271 1279.67 105.442 1270.11 105.153V70.7993ZM1270.11 12.1837L1284.57 26.6078L1297.54 39.5398L1270.11 66.8965V12.1837ZM1270.11 -2.36539H1322.83V14.309L1312.04 25.0694C1308.47 21.903 1303.97 20.1055 1299.16 20.1055C1294.34 20.1055 1289.84 21.903 1286.27 25.0694L1270.11 8.9502V-2.36539ZM1270.11 -46.1973C1280.19 -34.7628 1285.84 -20.1815 1286.1 -4.65173H1270.11V-46.1973ZM1270.11 -75.5299H1304.55C1305.15 -55.6445 1321.23 -39.6064 1341.16 -39.0055V-22.943H1322.83V-4.65152H1288.4C1288.11 -21.6277 1281.67 -37.55 1270.11 -49.6652V-75.5299ZM1270.11 -112.113H1329.47C1315.27 -106.977 1305.03 -93.6155 1304.55 -77.8164H1270.11V-112.113ZM1270.11 -114.399H1341.16V-148.695H1270.11V-114.399ZM1286.08 -178.222L1297.42 -189.538L1308.76 -178.222L1297.42 -166.905L1286.08 -178.222ZM1270.11 -177.078H1283.98L1297.42 -163.672L1312 -178.222L1297.42 -192.77L1283.98 -179.365H1270.11V-221.859H1288.45H1304.59C1305.62 -202.369 1321.51 -186.779 1341.16 -186.188V-150.981H1270.11V-177.078ZM1270.11 -224.145H1286.16V-240.15H1270.11V-224.145ZM1270.11 -259.294H1287.3C1296.78 -259.294 1304.49 -251.6 1304.49 -242.146V-224.146H1288.45V-242.436H1270.11V-259.294ZM1270.11 -295.024H1304.49V-251.098C1301.23 -257.296 1294.79 -261.581 1287.3 -261.581H1270.11V-295.024ZM1306.78 -224.146H1341.16V-295.024H1306.78V-224.146ZM1341.16 -188.474C1322.78 -189.064 1307.91 -203.628 1306.88 -221.859H1341.16V-188.474ZM1306.84 -77.8163C1307.44 -96.443 1322.49 -111.456 1341.16 -112.054V-77.8163H1306.84ZM1341.16 -75.5299V-41.2917C1322.49 -41.8903 1307.44 -56.9038 1306.84 -75.5299H1341.16ZM1341.16 217.128V251.366C1322.49 250.768 1307.44 235.754 1306.84 217.128H1341.16ZM1306.78 198.721C1316.98 198.117 1325.12 189.73 1325.12 179.403C1325.12 169.076 1316.98 160.689 1306.78 160.085V143.964H1341.16V214.842H1306.78V198.721ZM1294.38 192.253L1318.52 168.17C1321.16 171.186 1322.83 175.089 1322.83 179.403C1322.83 188.857 1315.11 196.551 1305.64 196.551C1301.31 196.551 1297.4 194.895 1294.38 192.253ZM1304.49 198.721V214.842H1271.73L1292.76 193.87C1295.93 196.682 1299.99 198.456 1304.49 198.721ZM1296.47 117.005L1341.16 72.4154V141.677H1306.72C1306.44 132.143 1302.6 123.5 1296.47 117.005ZM1316.9 166.554L1292.76 190.636C1290.11 187.62 1288.45 183.717 1288.45 179.403C1288.45 169.949 1296.16 162.255 1305.64 162.255C1309.96 162.255 1313.87 163.912 1316.9 166.554ZM1325.12 -4.65179H1341.16V-20.6564H1325.12V-4.65179ZM1325.12 13.6398H1341.16V-2.36539H1325.12V13.6398ZM1287.84 26.6344C1290.97 23.8879 1294.95 22.3915 1299.16 22.3915C1303.36 22.3915 1307.34 23.8879 1310.47 26.6344L1299.16 37.9237L1287.84 26.6344ZM1313.74 26.6078L1324.45 15.9261H1341.16V68.513H1271.73L1299.16 41.1562L1313.74 26.6078ZM1279.26 270.859C1279.26 266.446 1282.86 262.857 1287.28 262.857C1291.7 262.857 1295.3 266.446 1295.3 270.859C1295.3 275.271 1291.7 278.861 1287.28 278.861C1282.86 278.861 1279.26 275.271 1279.26 270.859ZM1287.28 281.147C1292.57 281.147 1296.9 277.131 1297.48 272.002H1341.16V288.007H1271.73L1280.89 278.87C1282.65 280.273 1284.86 281.147 1287.28 281.147ZM1343.45 272.002H1360.64C1370.99 272.002 1379.4 263.888 1380.01 253.711H1414.5V288.007H1343.45V272.002ZM1343.45 253.711H1377.71C1377.11 262.624 1369.73 269.716 1360.64 269.716H1343.45V253.711ZM1343.45 251.424H1377.83V217.128H1343.45V251.424ZM1343.45 180.43C1353.65 179.825 1361.79 171.439 1361.79 161.112V143.964H1414.5V178.318C1394.57 178.919 1378.49 194.957 1377.89 214.842H1343.45V180.43ZM1343.45 143.964H1359.49V161.112C1359.49 170.175 1352.39 177.543 1343.45 178.143V143.964ZM1343.45 70.7993H1396.16V105.997C1396.16 110.409 1392.56 114 1388.14 114C1383.72 114 1380.12 110.409 1380.12 105.997C1380.12 100.326 1375.49 95.7083 1369.81 95.7083C1364.12 95.7083 1359.49 100.326 1359.49 105.997V141.678H1343.45V70.7993ZM1343.45 15.9261V-2.36539H1359.49H1360.17L1396.16 33.5477V68.5129H1343.45V15.9261ZM1343.45 -22.943V-75.5299H1377.83V-41.2344H1359.49V-4.65152H1343.45V-22.943ZM1343.45 -112.228C1353.65 -112.833 1361.79 -121.22 1361.79 -131.547V-148.695H1396.16V-108.946C1385.51 -102.52 1378.29 -91.0232 1377.89 -77.8163H1343.45V-112.228ZM1343.45 -148.695H1359.49V-131.547C1359.49 -122.483 1352.39 -115.115 1343.45 -114.515V-148.695ZM1343.45 -150.981H1359.5V-186.13H1343.45V-150.981ZM1377.83 -186.661V-185.518V-150.981H1361.79V-186.661C1361.79 -191.073 1365.39 -194.663 1369.81 -194.663C1374.23 -194.663 1377.83 -191.073 1377.83 -186.661ZM1343.45 -221.859H1414.5V-187.563V-169.272H1398.46V-187.805H1380.06C1379.49 -192.94 1375.11 -196.95 1369.81 -196.95C1364.73 -196.95 1360.51 -193.251 1359.67 -188.416H1343.45V-221.859ZM1343.45 -295.024H1412.88L1388.52 -270.726H1369.52V-251.766L1343.45 -225.763V-295.024ZM1371.81 -252.435H1387.85V-268.44H1371.81V-252.435ZM1414.5 -224.146H1345.07L1371.14 -250.149H1390.14V-269.11L1414.5 -293.407V-224.146ZM1398.46 68.5129H1414.5V34.2169H1398.46V68.5129ZM1414.5 -75.5299V-4.65152H1380.12V-40.091V-41.2344V-75.5299H1414.5ZM1398.46 -150.981H1414.5V-166.986H1398.46V-150.981ZM1414.5 -148.695V-114.341C1408.74 -114.166 1403.3 -112.713 1398.46 -110.235V-148.695H1414.5ZM1380.12 -150.981H1396.16V-185.518H1380.12V-150.981ZM1414.5 -112.054V-77.8163H1380.18C1380.78 -96.443 1395.83 -111.456 1414.5 -112.054ZM1361.79 -4.65186H1377.83V-38.9479H1361.79V-4.65186ZM1380.12 -2.36539H1414.5V31.9306H1397.78L1363.41 -2.36539H1380.12ZM1414.38 141.677H1380.24C1380.84 132.764 1388.23 125.672 1397.31 125.672C1406.39 125.672 1413.78 132.764 1414.38 141.677ZM1397.31 123.386C1386.96 123.386 1378.55 131.501 1377.95 141.678H1361.79V105.997C1361.79 101.586 1365.39 97.9952 1369.81 97.9952C1374.23 97.9952 1377.83 101.586 1377.83 105.997C1377.83 111.669 1382.46 116.286 1388.14 116.286C1393.83 116.286 1398.46 111.669 1398.46 105.997V70.7993H1414.5V133.87C1411.24 127.672 1404.8 123.386 1397.31 123.386ZM1380.18 214.842C1380.78 196.214 1395.83 181.189 1414.5 180.593V214.842H1380.18ZM1380.12 251.424H1414.5V217.128H1380.12V251.424ZM1416.79 253.769C1435.46 254.368 1450.51 269.381 1451.11 288.007H1416.79V253.769ZM1416.79 217.128H1451.12C1451.78 237.001 1467.89 253.007 1487.84 253.55V288.007H1453.4C1452.8 268.121 1436.72 252.083 1416.79 251.482V217.128ZM1416.79 182.162L1449.55 214.842H1416.79V182.162ZM1416.79 151.772C1420.05 157.97 1426.49 162.255 1433.98 162.255C1444.33 162.255 1452.74 154.141 1453.34 143.964H1487.84V178.206C1468.35 178.738 1452.53 194.019 1451.2 213.253L1416.79 178.93V151.772ZM1451.05 143.964C1450.45 152.877 1443.06 159.969 1433.98 159.969C1424.89 159.969 1417.51 152.877 1416.91 143.964H1451.05ZM1452.31 114.24C1447.89 114.24 1444.29 110.65 1444.29 106.239C1444.29 101.826 1447.89 98.2364 1452.31 98.2364C1456.74 98.2364 1460.34 101.826 1460.34 106.239C1460.34 110.65 1456.74 114.24 1452.31 114.24ZM1416.79 70.7993H1487.84V141.678H1453.46V116.411C1458.6 115.833 1462.63 111.52 1462.63 106.239C1462.63 100.567 1458 95.9503 1452.31 95.9503C1446.63 95.9503 1442 100.567 1442 106.239C1442 111.52 1446.03 115.833 1451.17 116.411V141.678H1416.79V70.7993ZM1416.79 34.3332C1425.73 34.9336 1432.83 42.3019 1432.83 51.3648C1432.83 60.4276 1425.73 67.796 1416.79 68.397V34.3332ZM1416.79 -2.36539H1433.5L1469.5 33.5477V52.5078H1487.84V68.5129H1424.62C1430.83 65.2618 1435.13 58.8382 1435.13 51.3649C1435.13 41.0386 1426.99 32.6517 1416.79 32.0464V-2.36539ZM1469.5 -2.36539V30.3142L1436.75 -2.36539H1469.5ZM1416.79 -75.5299H1432.83V-58.3819C1432.83 -47.6642 1441.57 -38.9476 1452.31 -38.9476C1462.67 -38.9476 1471.17 -47.0529 1471.76 -57.2384H1487.84V-4.65152H1471.79H1431.21H1416.79V-75.5299ZM1416.79 -111.996C1425.73 -111.396 1432.83 -104.027 1432.83 -94.9643V-77.8163H1416.79V-111.996ZM1469.5 -75.5299V-59.5247V-58.3819C1469.5 -48.9283 1461.79 -41.2344 1452.31 -41.2344C1442.84 -41.2344 1435.13 -48.9283 1435.13 -58.3819V-75.5299H1469.5ZM1416.79 -148.695H1453.46H1487.84V-77.8163H1435.13V-94.9643C1435.13 -105.291 1426.99 -113.678 1416.79 -114.282V-148.695ZM1416.79 -169.272V-185.277H1451.17V-150.981H1416.79V-169.272ZM1416.79 -221.859H1487.84V-150.981H1453.46V-187.563H1416.79V-221.859ZM1416.79 -295.024H1451.17V-260.058L1416.79 -225.763V-295.024ZM1452.79 -258.442H1487.84V-224.146H1418.41L1452.79 -258.442ZM1471.79 -59.5247H1487.84V-75.5299H1471.79V-59.5247ZM1471.79 31.9312H1487.84V-2.36539H1471.79V31.9312ZM1487.84 34.2169V50.2214H1471.79V35.8339V34.2169H1487.84ZM1453.41 214.842C1453.95 196.129 1469.08 181.037 1487.84 180.492V214.842H1453.41ZM1487.84 217.128V251.263C1469.15 250.721 1454.07 235.741 1453.41 217.128H1487.84ZM1453.46 -260.728H1487.84V-295.024H1453.46V-260.728ZM1451.17 -297.828L1416.79 -297.31H1414.5H1343.45H1341.16H1270.11H1267.82H1196.78H1194.48H1123.44H1121.14H1086.95L1086.43 -297.828L1085.91 -297.31H1050.1H1047.81H976.759H974.468H903.421H901.129H864.461H830.082H827.791H756.744H754.453H683.406H681.114H610.068H607.775H536.729H534.437H500.244L499.724 -297.828L499.205 -297.31H463.39H461.098H390.052H387.761H314.422V-224.146V-221.859V-150.981V-148.695V-77.8163V-75.53V-4.65167V-2.36542V15.9261V68.5129V70.7992V141.678V143.964V214.842V217.128V288.056V361.22V363.507H316.713H387.761H390.052H393.664H397.14H461.098H463.39H488.601H490.892H534.437H536.729H572.633H575.874H607.775H610.068H644.445H646.737H681.114H683.406H701.74H717.884H720.176H754.453H756.744H827.791H830.082H901.129H903.421H974.468H976.759H980.372H983.848H1047.81H1050.1H1075.31H1077.6H1121.14H1123.44H1159.34H1162.58H1194.48H1196.78H1231.15H1233.44H1267.82H1270.11H1288.45H1304.59H1306.88H1341.16H1343.45H1414.5H1416.79H1487.84H1490.13V361.22V326.925V290.293V217.128V214.842V143.964V141.678V70.7992V68.5129V52.5078V31.9306V-2.36542V-4.65167V-75.53V-77.8163V-148.695V-150.981V-221.859V-224.146V-258.442V-297.828H1451.17Z" fill="#50E6FF"/>
</g>
<path d="M1742.61 -336.91L1106.33 299.337C1062.86 342.819 1003.89 367.245 942.402 367.238H55.3913V349.659H942.402C999.232 349.668 1053.74 327.095 1093.92 286.909C1347.25 33.5814 1489.28 -108.449 1742.61 -361.777V-336.91Z" fill="#2d92e0"/>
<path fill-rule="evenodd" clip-rule="evenodd" d="M1743.19 -363.192V-336.667L1106.75 299.752C1063.16 343.343 1004.04 367.831 942.402 367.825H54.8051V349.073H942.403C999.077 349.081 1053.43 326.57 1093.51 286.494L1743.19 -363.192ZM1094.34 287.323C1054.04 327.62 999.388 350.254 942.402 350.245H55.9776V366.652H942.403C1003.73 366.658 1062.55 342.294 1105.92 298.923L1742.02 -337.153V-360.361L1094.34 287.323Z" fill="#2d92e0"/>
<path d="M1093.32 309.094C1098.52 309.094 1102.73 304.881 1102.73 299.684C1102.73 294.487 1098.52 290.274 1093.32 290.274C1088.12 290.274 1083.91 294.487 1083.91 299.684C1083.91 304.881 1088.12 309.094 1093.32 309.094Z" fill="#50E6FF"/>
<path d="M1354.8 48.1342C1360 48.1342 1364.21 43.9213 1364.21 38.7243C1364.21 33.5273 1360 29.3143 1354.8 29.3143C1349.61 29.3143 1345.39 33.5273 1345.39 38.7243C1345.39 43.9213 1349.61 48.1342 1354.8 48.1342Z" fill="#50E6FF"/>
<path d="M1750.42 -420.392H1734.05L1259.71 53.9795C1235.1 78.5843 1221.34 111.995 1221.48 146.791C1221.61 181.587 1235.63 214.888 1260.43 239.3L1555.81 530.076H1582.53L1273.59 225.931C1252.35 205.026 1240.34 176.509 1240.23 146.713C1240.11 116.917 1251.9 88.3074 1272.96 67.2373L1750.42 -410.219V-420.392Z" fill="#50E6FF"/>
<path fill-rule="evenodd" clip-rule="evenodd" d="M1286.16 242.364C1286.16 247.561 1281.94 251.775 1276.74 251.775C1271.55 251.775 1267.33 247.561 1267.33 242.364C1267.33 237.166 1271.55 232.953 1276.74 232.953C1281.94 232.953 1286.16 237.166 1286.16 242.364Z" fill="#2d92e0"/>
<path fill-rule="evenodd" clip-rule="evenodd" d="M1272.08 64.1317C1272.08 69.329 1267.87 73.5425 1262.67 73.5425C1257.48 73.5425 1253.26 69.329 1253.26 64.1317C1253.26 58.9343 1257.48 54.7208 1262.67 54.7208C1267.87 54.7208 1272.08 58.9343 1272.08 64.1317Z" fill="#2d92e0"/>
</g>
</g>
<defs>
<clipPath id="clip0">
<rect width="1738.94" height="344" fill="white" transform="translate(-256.936)"/>
</clipPath>
</defs>
</svg>